<?xml version="1.0" encoding="UTF-8"?>
<svg id="Layer_1" data-name="Layer 1" xmlns="http://www.w3.org/2000/svg" viewBox="0 0 1920 1080">
  <defs>
    <style>
      .cls-1 {
        fill: #f6ab2e;
        stroke-width: 0px;
      }
    </style>
  </defs>
  <path class="cls-1" d="m1342.07,680.98c-14.26,0-25.72,4.94-34.38,14.83-8.66,9.89-12.99,23.96-12.99,42.2s4.29,32.31,12.88,42.2c8.58,9.89,20.08,14.83,34.49,14.83s26.13-4.94,34.72-14.83c8.58-9.89,12.88-23.95,12.88-42.2s-4.33-32.31-12.99-42.2c-8.66-9.89-20.2-14.83-34.61-14.83Z"/>
  <path class="cls-1" d="m709.12,688.46c-6.52-4.83-15.83-7.25-27.94-7.25-4.14,0-8.24.2-12.3.58-4.07.38-7.7.88-10.92,1.49v59.1h22.3c12.26,0,21.77-2.56,28.52-7.7,6.74-5.14,10.11-12.91,10.11-23.34s-3.26-18.05-9.77-22.88Z"/>
  <path class="cls-1" d="m1203.29,686.85c-8.51-3.75-17.98-5.63-28.4-5.63-4.75,0-8.97.15-12.65.46-3.68.31-7.05.77-10.12,1.38v109.46c3.68.92,7.62,1.53,11.84,1.84,4.21.31,8.54.46,12.99.46,17.94,0,31.5-4.94,40.7-14.83s13.8-24.41,13.8-43.58c0-13.18-2.57-23.8-7.7-31.85-5.14-8.05-11.96-13.95-20.47-17.71Z"/>
  <path class="cls-1" d="m-103-59v1207h2346V-59H-103Zm1390.57,345.98l6.93-5.81c10.29-8.64,25.95-.93,25.38,12.49l-.38,9.04c-1.89,44.55-.5,88.92,4.12,131.88,4.18,38.9,9.51,59.31,12.07,69.13.7,2.7,1.21,4.7,1.49,6.11,7.16,35.39,24.6,64.42,40.5,85.84,6.2,8.34,4.76,20.05-3.27,26.64-8.58,7.04-21.32,5.53-27.93-3.38-15.76-21.25-38.46-57.16-47.41-101.4-.19-.93-.55-2.24-1.01-4.01-2.8-10.72-8.62-33.02-13.11-74.79-3.32-30.83-5.04-62.35-5.15-94.12-21.09,18.1-42.98,37.17-64.39,55.82-2.98,2.59-5.97,5.2-8.97,7.81-.01-5.06-.02-10.23-.02-15.59,0-11.29-.02-23.24-.09-35.88,27.68-24.09,55.62-48.29,81.24-69.8Zm-110.01-.69c8.24-6.54,20.4-.81,20.64,9.72l.25,9.79c.49,21,.71,40.23.81,58.04.07,12.62.07,24.57.07,35.88.04,5.34.04,10.53.04,15.59.04,20.04.18,37.75.88,52.56,1.13,24.5,3.11,51.15,13.82,84.2,6.79,21,16.19,43.02,24.6,58.29,4.21,7.71,2.02,17.32-5.02,22.55-3.18,2.37-6.89,3.5-10.57,3.5-6.15,0-12.2-3.22-15.45-9.12-9.62-17.46-19.65-41.01-27.22-64.34-12.02-37.22-14.25-66.56-15.48-93.46-.35-7.32-.57-15.24-.71-23.68-.21-13.89-.21-29.27-.25-46.06v-5.3c0-16.08-.04-33.41-.25-52.28l-95.66,75.4-18.17-29.66,127.65-101.63Zm-19.25,160.13c-18.42,15.94-30.33,30.61-47.44,44.97l-19.97-34.81c24.51-20.57,41.81-39.6,67.16-61.5,0,1.75,0,3.55,0,5.27.01,16.81.02,32.19.25,46.07Zm-563.48,353.22c-8.82,7.51-21.19,11.27-37.14,11.27-9.35,0-17.52-1.03-24.49-3.1-6.98-2.07-12.42-4.67-16.33-7.82-3.91-3.14-5.86-6.24-5.86-9.31,0-2.61.8-4.79,2.41-6.55,1.61-1.76,3.49-3.03,5.63-3.79,3.52,3.37,8.51,6.71,14.95,10,6.44,3.3,14.33,4.94,23.69,4.94,10.27,0,18.05-2.33,23.34-7.01,5.29-4.67,7.93-10.69,7.93-18.05,0-6.28-2.03-11.46-6.09-15.52-4.06-4.06-10.46-7.39-19.2-10l-20.01-5.98c-6.44-1.99-12.04-4.56-16.79-7.7-4.75-3.14-8.39-7.05-10.92-11.73-2.53-4.67-3.79-10.15-3.79-16.44,0-11.8,4.29-21.04,12.88-27.71,8.58-6.67,20.01-10,34.26-10,8.28,0,15.67.88,22.19,2.64,6.51,1.76,11.65,4.02,15.41,6.78,3.75,2.76,5.63,5.67,5.63,8.74,0,1.99-.54,3.79-1.61,5.4-1.07,1.61-2.45,2.87-4.14,3.79-3.83-3.07-9.01-5.75-15.52-8.05-6.52-2.3-13.61-3.45-21.27-3.45-8.89,0-15.95,1.96-21.16,5.86-5.21,3.91-7.82,9.24-7.82,15.98,0,5.37,1.88,9.74,5.63,13.11,3.75,3.37,9.85,6.29,18.28,8.74l14.03,4.14c12.11,3.37,21.65,8.28,28.63,14.72,6.97,6.44,10.46,15.33,10.46,26.67,0,12.11-4.41,21.92-13.22,29.43Zm27.11-286.12c-.46,1.77-.82,3.08-1.01,4.01-8.95,44.23-31.65,80.15-47.41,101.4-6.61,8.91-19.36,10.42-27.93,3.38-8.03-6.59-9.46-18.3-3.27-26.64,15.91-21.43,33.34-50.46,40.5-85.84.28-1.41.79-3.42,1.49-6.11,2.56-9.81,7.89-30.23,12.07-69.13,4.62-42.96,6-87.33,4.12-131.88l-.38-9.04c-.57-13.43,15.09-21.13,25.38-12.49l6.93,5.81c25.61,21.5,53.56,45.71,81.24,69.8-.07,12.64-.08,24.59-.09,35.88,0,5.36,0,10.53-.02,15.59-2.99-2.61-5.99-5.21-8.97-7.81-21.42-18.66-43.3-37.72-64.39-55.82-.12,31.77-1.84,63.29-5.15,94.12-4.49,41.77-10.31,64.07-13.11,74.79Zm109.72,222.42c-4.07,7.06-10.24,12.5-18.52,16.33-8.27,3.83-18.85,5.75-31.73,5.75h-23.22v49.44c-.92.31-2.15.65-3.68,1.03-1.54.39-3.22.58-5.06.58-3.38,0-5.91-.69-7.59-2.07-1.69-1.38-2.53-3.53-2.53-6.44v-122.33c0-2.46.65-4.33,1.95-5.64,1.3-1.3,3.18-2.33,5.64-3.1,4.44-1.38,9.85-2.38,16.21-2.99,6.36-.61,12.53-.92,18.51-.92,19.47,0,33.69,4.1,42.66,12.3,8.97,8.2,13.45,19.28,13.45,33.23,0,9.51-2.03,17.78-6.09,24.83Zm24.35-341.48v5.3c-.04,16.79-.04,32.17-.25,46.06-.14,8.45-.35,16.37-.71,23.68-1.24,26.9-3.46,56.24-15.48,93.46-7.56,23.33-17.6,46.87-27.22,64.34-3.25,5.9-9.3,9.12-15.45,9.12-3.68,0-7.39-1.13-10.57-3.5-7.03-5.23-9.23-14.85-5.02-22.55,8.41-15.27,17.82-37.29,24.6-58.29,10.71-33.05,12.69-59.71,13.82-84.2.71-14.81.85-32.52.88-52.56,0-5.05,0-10.25.04-15.59,0-11.31,0-23.26.07-35.88.11-17.82.32-37.05.81-58.04l.25-9.79c.25-10.53,12.41-16.26,20.64-9.72l127.65,101.63-18.17,29.66-95.66-75.4c-.21,18.88-.25,36.2-.25,52.28Zm5.92,5.89c0-1.72,0-3.52,0-5.27,25.36,21.89,42.65,40.92,67.16,61.5l-19.97,34.81c-17.11-14.36-29.02-29.03-47.44-44.97.22-13.88.23-29.26.25-46.07Zm26.63,407.11c-.77.31-1.92.65-3.45,1.03-1.53.39-3.22.58-5.06.58-3.37,0-5.9-.69-7.59-2.07s-2.53-3.53-2.53-6.44v-131.99c.77-.31,1.96-.65,3.57-1.04,1.61-.38,3.33-.57,5.17-.57,3.37,0,5.87.65,7.48,1.95,1.6,1.31,2.41,3.49,2.41,6.56v131.99Zm152.23-2.07c-1.38,1.07-3.15,1.99-5.29,2.76-2.15.76-4.52,1.15-7.13,1.15-3.68,0-6.82-.73-9.43-2.19-2.61-1.45-4.98-4.1-7.13-7.93l-43.69-73.58c-2.3-4.14-4.83-8.7-7.59-13.69-2.75-4.98-5.36-9.73-7.81-14.25-2.46-4.52-4.37-8.24-5.75-11.16l-.89.23c.41,3.78.79,7.99,1.12,12.65.46,6.44.8,13.07,1.03,19.89.23,6.82.35,13.3.35,19.43v68.76c-.77.31-1.96.65-3.57,1.03-1.61.39-3.26.58-4.94.58-3.37,0-5.9-.65-7.59-1.96-1.69-1.3-2.53-3.41-2.53-6.32v-129.92c1.23-1.23,2.95-2.22,5.17-2.99,2.23-.77,4.64-1.15,7.25-1.15,3.68,0,6.82.73,9.43,2.18,2.6,1.46,4.98,4.11,7.13,7.94l43.92,73.58c2.45,4.14,5.02,8.7,7.7,13.68,2.68,4.99,5.17,9.74,7.47,14.26s4.14,8.24,5.52,11.15l.92-.23c-1.25-11.55-1.97-23.31-2.18-35.29-.23-13.42-.35-26.41-.35-38.98v-46.45c.92-.31,2.15-.65,3.68-1.04,1.53-.38,3.22-.57,5.06-.57,3.37,0,5.9.65,7.59,1.95,1.68,1.31,2.53,3.42,2.53,6.33v130.15Zm151.77,0c-1.38,1.07-3.15,1.99-5.29,2.76-2.15.76-4.52,1.15-7.13,1.15-3.68,0-6.82-.73-9.43-2.19-2.61-1.45-4.98-4.1-7.13-7.93l-43.69-73.58c-2.3-4.14-4.83-8.7-7.59-13.69-2.76-4.98-5.36-9.73-7.81-14.25-2.46-4.52-4.37-8.24-5.75-11.16l-.89.23c.41,3.78.79,7.99,1.12,12.65.46,6.44.8,13.07,1.03,19.89.23,6.82.35,13.3.35,19.43v68.76c-.77.31-1.96.65-3.57,1.03-1.61.39-3.26.58-4.94.58-3.38,0-5.9-.65-7.59-1.96-1.69-1.3-2.53-3.41-2.53-6.32v-129.92c1.23-1.23,2.95-2.22,5.17-2.99,2.22-.77,4.64-1.15,7.25-1.15,3.68,0,6.82.73,9.43,2.18,2.6,1.46,4.98,4.11,7.13,7.94l43.92,73.58c2.45,4.14,5.02,8.7,7.7,13.68,2.68,4.99,5.17,9.74,7.47,14.26s4.14,8.24,5.52,11.15l.92-.23c-1.25-11.55-1.97-23.31-2.18-35.29-.23-13.42-.35-26.41-.35-38.98v-46.45c.92-.31,2.15-.65,3.68-1.04,1.53-.38,3.22-.57,5.06-.57,3.37,0,5.9.65,7.59,1.95,1.68,1.31,2.53,3.42,2.53,6.33v130.15Zm-305.45-205.46c-6.25,0-10.15-6.76-7.03-12.17l170.74-295.73c3.12-5.41,10.93-5.41,14.06,0l170.74,295.73c3.12,5.41-.78,12.17-7.03,12.17h-341.48Zm454.34,177.98c-6.06,10.96-14.57,19.13-25.52,24.49-10.96,5.37-23.88,8.05-38.75,8.05-4.75,0-10.23-.19-16.44-.57-6.21-.38-12.07-1.42-17.59-3.1-6.44-1.99-9.66-5.52-9.66-10.58v-118.2c0-2.45.65-4.33,1.96-5.63,1.3-1.3,3.18-2.34,5.63-3.1,4.75-1.53,10.12-2.53,16.1-2.99,5.98-.46,11.96-.69,17.94-.69,15.02,0,28.17,2.64,39.44,7.93s20.08,13.15,26.44,23.57c6.36,10.43,9.54,23.53,9.54,39.32,0,16.71-3.03,30.55-9.08,41.51Zm158.55.23c-5.83,10.81-13.76,18.97-23.8,24.49-10.04,5.52-21.42,8.28-34.15,8.28s-23.92-2.76-34.03-8.28c-10.12-5.52-18.09-13.68-23.92-24.49-5.83-10.81-8.74-24.18-8.74-40.13s2.99-29.32,8.97-40.13c5.98-10.81,13.99-18.97,24.03-24.49,10.04-5.52,21.27-8.28,33.69-8.28s23.88,2.76,33.92,8.28c10.04,5.52,18.01,13.68,23.92,24.49,5.9,10.81,8.85,24.19,8.85,40.13s-2.91,29.32-8.74,40.13Z"/>
</svg>